<svg id="Layer_1" data-name="Layer 1" xmlns="http://www.w3.org/2000/svg" viewBox="0 0 122.88 78.86"><defs><style>.cls-1{fill-rule:evenodd;}</style></defs><title>wedding-couple</title><path fill="#ffffff" class="cls-1" d="M81.16,29.58A20.85,20.85,0,0,0,87.22,29a14.31,14.31,0,0,0,4.84-2.22c.21-.15.66-.56,1.14-1,.92-.84,2-1.79,2.49-1.79s1.76,1,2.61,1.68c.27.22.5.41.65.52a22.43,22.43,0,0,0,3.73,2.22,14,14,0,0,0,3.61,1.11,5.86,5.86,0,0,0,.88,0c1,0,2.08,0,2.54.64a1.61,1.61,0,0,1,.27.75,3.25,3.25,0,0,1,0,.77c-.09.87-.23,1.83-.41,2.86A3.31,3.31,0,0,1,112,36.28a2.77,2.77,0,0,1,.24,1.63,3.93,3.93,0,0,1-.61,1.55,5.11,5.11,0,0,1-3.78,2.21c-.21.62-.43,1.23-.67,1.82a23.18,23.18,0,0,1-2.06,4A11.73,11.73,0,0,0,109,44.9a16,16,0,0,0,4.12-8.27,22.64,22.64,0,0,0-.34-9.83,16.94,16.94,0,0,0-4.21-7.75c-.39-.38-1-.85-1.53-1.31s-1-.73-1.38-1a2.24,2.24,0,0,1-4.19-1.11,2.24,2.24,0,0,1,2.24-2.23h.24a7,7,0,0,0-3.79-4.94A11.13,11.13,0,0,0,91.2,7.9a8.05,8.05,0,0,0-5,5.47,2.24,2.24,0,0,1,2,1.44A2.22,2.22,0,0,1,88,14a2.31,2.31,0,1,1,.15.82A2.24,2.24,0,0,1,84,16.48a20.6,20.6,0,0,0-7.66,11.75,20.2,20.2,0,0,0-.44,7.44,15.66,15.66,0,0,0,2.39,6.59,13.22,13.22,0,0,0,6,5,13.57,13.57,0,0,1-1.18-1.9,31.78,31.78,0,0,1-1.28-3.68,5.09,5.09,0,0,1-3.67-2.2,3.93,3.93,0,0,1-.61-1.55,2.77,2.77,0,0,1,.24-1.63,3.28,3.28,0,0,1,2.27-1.7,18.55,18.55,0,0,1-.29-2.39c-.06-1.33.21-2.27,1-2.54h0a1,1,0,0,1,.34-.06Zm41.27,48.67v.61H.86V77.71H0C1.25,63-.32,60.5,15.38,55a23.54,23.54,0,0,0,6.79-3.36,57,57,0,0,0,2-5.59l.25-.76v0A44.22,44.22,0,0,1,21,40.33l-3.57-5.67a10.41,10.41,0,0,1-2-5.19,4.11,4.11,0,0,1,.35-1.85A3.46,3.46,0,0,1,17,26.19a4.08,4.08,0,0,1,.86-.44,90.68,90.68,0,0,1-.17-10.2,14.46,14.46,0,0,1,.44-2.31c1.31-4.67,5.32-8,9.9-9.61C30.28,2.86,29.43-.12,31.67,0,37,.3,45.21,4.88,48.37,8.52c4.42,5.1,3.28,11.38,3.13,17.6h0a2.59,2.59,0,0,1,1.89,1.94c.28,1.13,0,2.71-1,4.88h0a.34.34,0,0,1-.06.12l-4.06,6.7A33.35,33.35,0,0,1,43,46.9l-.14.13.84,1.26c.74,1.11,1.59,2.38,2.37,3.4a22.26,22.26,0,0,0,6.29,3.11c7.79,2.72,13.22,3.61,15.35,10.32,3.26-6.18,12.13-7.6,17.11-8.4a16.68,16.68,0,0,0,2.81-.56.73.73,0,0,0,.23-.33,1.86,1.86,0,0,0,.11-.62V51.1A.76.76,0,0,1,88,51c-.43-.34-.85-.69-1.26-1.06a1,1,0,0,1-.46,0,15.61,15.61,0,0,1-9.59-6.59A17.64,17.64,0,0,1,74,35.92a22.79,22.79,0,0,1,9.74-21.58,1,1,0,0,1,.44-.16.88.88,0,0,1,0-.51,10,10,0,0,1,6.39-7.55A12.92,12.92,0,0,1,101,6.76a8.75,8.75,0,0,1,4.9,7.29,1,1,0,0,1-.13.53,1.08,1.08,0,0,1,.29.13c.57.37,1.36.94,2.11,1.52a21.57,21.57,0,0,1,1.69,1.46,18.86,18.86,0,0,1,4.72,8.63A24.47,24.47,0,0,1,114.94,37a17.82,17.82,0,0,1-4.63,9.26A14.09,14.09,0,0,1,103.8,50a.94.94,0,0,1-.66-.07,9.52,9.52,0,0,1-.86.71l-.17.12-.75.55a1.11,1.11,0,0,1,0,.19v3.73a1.85,1.85,0,0,0,.12.62.73.73,0,0,0,.23.33,16.18,16.18,0,0,0,2.81.56c6.18,1,18.35,2.94,18.35,13.75v7a1,1,0,0,1-.45.81ZM26.32,58.75c-2.16-1.39-2.08-5.72,0-7.06a21,21,0,0,1,7.37,3.53,20.81,20.81,0,0,0,8,3.84c2.86-1.55,2.74-5.93.26-7.79-2.67,1.28-5.77,1.9-8,3.84a17,17,0,0,1-7.62,3.64ZM20,27.4a3.43,3.43,0,0,0-1.8.47,1.41,1.41,0,0,0-.52.59,2.07,2.07,0,0,0-.16,1,8.6,8.6,0,0,0,1.69,4.14l0,0h0l3.57,5.67a30.23,30.23,0,0,0,4.79,6.3,9.81,9.81,0,0,0,6.84,2.76,10.11,10.11,0,0,0,7.24-2.88,31.63,31.63,0,0,0,4.94-6.73l4-6.62c.74-1.7,1-2.85.85-3.52-.11-.4-.55-.59-1.3-.63h-.49l-.56,0a1.06,1.06,0,0,1-.31,0,5.85,5.85,0,0,1-1.1-.06l1.38-6.09c-10.22,1.61-17.86-6-28.65-1.52l.78,7.18A7,7,0,0,1,20,27.4Zm3.29,26.22-.09.11c1.4,7.83,4.81,11.14,10.78,17.36,6.51-5.73,10.64-9.18,11.36-17.32a52.22,52.22,0,0,1-3.18-4.42c-.26-.4-.51-.78-.75-1.12A12.24,12.24,0,0,1,26.18,47l-.21-.2c-.65,2-1.8,5.48-2.73,6.78ZM68.49,68.94c.11,1,.18,2,.21,3.11C73.27,64.26,89.79,61.87,94.54,75c6.12-13.49,22.52-10.53,26.42-2.71V70.47c0-9.18-11.1-11-16.73-11.87a10.37,10.37,0,0,1-3.68-.93,2.6,2.6,0,0,1-.85-1.14,4.22,4.22,0,0,1-.24-1.28v-2.7A8.53,8.53,0,0,1,94,53.87a9.29,9.29,0,0,1-1.06-.2q-.56-.15-1.11-.36l0,0c-.61-.3-1.23-.64-1.84-1v3a3.69,3.69,0,0,1-.24,1.28,2.66,2.66,0,0,1-.84,1.14,10.37,10.37,0,0,1-3.68.93c-5.31.86-15.46,2.49-16.63,10.34ZM23.7,27.66a.58.58,0,0,1-.67-.94,5.74,5.74,0,0,1,3.32-1.16,5.85,5.85,0,0,1,3.39,1.16.57.57,0,0,1,.15.8.58.58,0,0,1-.8.15,4.7,4.7,0,0,0-2.73-1,4.56,4.56,0,0,0-2.66.95Zm7.47,14.48a.48.48,0,0,1,.09-.82,1,1,0,0,1,1.13.07,3.53,3.53,0,0,0,2.08.51,3.55,3.55,0,0,0,2.08-.52,1,1,0,0,1,1.14-.05.47.47,0,0,1,.07.81,5.45,5.45,0,0,1-3.29.92,5.47,5.47,0,0,1-3.3-.92ZM39.34,31a.56.56,0,0,1-.16-.79A.57.57,0,0,1,40,30a3.64,3.64,0,0,0,2,.44A4.06,4.06,0,0,0,44,30a.58.58,0,0,1,.8.17.57.57,0,0,1-.18.79,5.11,5.11,0,0,1-2.62.71A4.74,4.74,0,0,1,39.34,31ZM24.19,31A.56.56,0,0,1,24,30.2a.56.56,0,0,1,.79-.16,3.73,3.73,0,0,0,2,.46A4.28,4.28,0,0,0,28.94,30a.58.58,0,0,1,.57,1,5.43,5.43,0,0,1-2.68.66A4.83,4.83,0,0,1,24.19,31Zm15.66-3.33a.57.57,0,0,1-.8-.13.59.59,0,0,1,.14-.81,5.74,5.74,0,0,1,3.32-1.16,5.87,5.87,0,0,1,3.39,1.16.58.58,0,0,1-.65,1,4.73,4.73,0,0,0-2.74-1,4.6,4.6,0,0,0-2.66.95ZM52,68.07h8.56a.54.54,0,0,1,.53.54v.63a.53.53,0,0,1-.53.53H52a.53.53,0,0,1-.53-.53v-.63a.54.54,0,0,1,.53-.54ZM85.31,34.33a.57.57,0,0,1-.67-.93,5.11,5.11,0,0,1,3-1,5.29,5.29,0,0,1,3.06,1,.58.58,0,0,1,.14.8.56.56,0,0,1-.79.14,4.32,4.32,0,0,0-2.41-.84,4.06,4.06,0,0,0-2.33.84Zm9.36,29.21,2,2-2,2-2-2,2-2Zm0,1.34.7.69-.7.7-.69-.7.69-.69Zm4-1.62a1.18,1.18,0,1,0,1.18,1.18,1.18,1.18,0,0,0-1.18-1.18Zm-7.91,0a1.18,1.18,0,1,1-1.18,1.18,1.18,1.18,0,0,1,1.18-1.18Zm10.94-1.8a1.18,1.18,0,1,0,1.18,1.18,1.18,1.18,0,0,0-1.18-1.18Zm-14,0a1.18,1.18,0,1,1-1.18,1.18,1.18,1.18,0,0,1,1.18-1.18Zm16.26-2.59a1.18,1.18,0,1,0,1.18,1.18,1.18,1.18,0,0,0-1.18-1.18Zm-18.53,0a1.18,1.18,0,1,1-1.18,1.18,1.18,1.18,0,0,1,1.18-1.18Zm7-12.19a.53.53,0,0,1,.32-.66.52.52,0,0,1,.65.31.87.87,0,0,0,.54.48,2.4,2.4,0,0,0,.82.17,2.42,2.42,0,0,0,.86-.13,1.09,1.09,0,0,0,.68-.54.51.51,0,1,1,.94.39,2.07,2.07,0,0,1-1.28,1.12,3.54,3.54,0,0,1-1.22.18,3.38,3.38,0,0,1-1.2-.24,1.91,1.91,0,0,1-1.11-1.08Zm7.79-9-.56.7a.58.58,0,0,1-.9-.72l.37-.46a.58.58,0,0,1-.09-.74.59.59,0,0,1,.8-.16,3.14,3.14,0,0,0,1.71.38,3.48,3.48,0,0,0,1.77-.46.58.58,0,0,1,.79.18.57.57,0,0,1-.16.78l.41.45a.58.58,0,1,1-.85.78l-.68-.75-.66.12v.67a.58.58,0,0,1-1.15,0v-.64a7,7,0,0,1-.8-.13Zm-13.46,0-.56.69a.56.56,0,0,1-.8.09.57.57,0,0,1-.09-.81l.35-.44a.57.57,0,0,1-.12-.76.59.59,0,0,1,.8-.16,3.14,3.14,0,0,0,1.67.4h.25a3.8,3.8,0,0,0,1.67-.44.57.57,0,0,1,.61,1l.37.4a.59.59,0,0,1,0,.82.58.58,0,0,1-.81,0l-.66-.72c-.22,0-.45.09-.68.12v.64a.58.58,0,0,1-1.15,0v-.62a5.06,5.06,0,0,1-.81-.14Zm13-3.41a.58.58,0,0,1-.8-.14.57.57,0,0,1,.14-.79,5.06,5.06,0,0,1,3-1,5.29,5.29,0,0,1,3.06,1,.57.57,0,1,1-.65.94,4.29,4.29,0,0,0-2.41-.84,4.06,4.06,0,0,0-2.33.84ZM81.34,40c-.36-1.28-.71-2.64-1-3.93a1.78,1.78,0,0,0-1.19.86,1.28,1.28,0,0,0-.1.76,2.23,2.23,0,0,0,.37.92A3.48,3.48,0,0,0,81.34,40Zm.4-4.74L83,40.37a37.89,37.89,0,0,0,1.43,4.28,14.64,14.64,0,0,0,3.16,4,20.37,20.37,0,0,0,4.76,3.26c.31.12.61.21.89.29a6.64,6.64,0,0,0,.87.16c2.72.34,4.89-1.25,7.08-2.84l.17-.13c1.78-1.3,3.21-3.71,4.32-6.46a46.11,46.11,0,0,0,2.76-11.38,1.77,1.77,0,0,0,0-.4c0-.06,0-.07,0-.08h-1.3a7.48,7.48,0,0,1-1.11,0,15,15,0,0,1-4-1.23,23.12,23.12,0,0,1-4-2.38c-.14-.1-.41-.31-.72-.57-.67-.55-1.61-1.33-1.64-1.33s-.74.74-1.46,1.39A16.46,16.46,0,0,1,93,28a15.69,15.69,0,0,1-5.35,2.46,21.94,21.94,0,0,1-6.36.62l.05,1a20.25,20.25,0,0,0,.45,3.15Zm27.63.81-1,3.94a3.46,3.46,0,0,0,1.93-1.4,2.23,2.23,0,0,0,.37-.92,1.28,1.28,0,0,0-.1-.76,1.75,1.75,0,0,0-1.2-.86Zm-10-24.39A2.32,2.32,0,1,1,97.06,14a2.31,2.31,0,0,1,2.32-2.31ZM94.84,11a2.24,2.24,0,1,1-2.24,2.24A2.24,2.24,0,0,1,94.84,11Z"/></svg>